# xmcd
#
# Track frame offsets:
#	150
#	11325
#	22950
#	36085
#	49653
#	60358
#	74058
#	88635
#	102728
#	114220
#	126633
#	139500
#
# Disc length: 1999 seconds
#
# Revision: 3
# Processed by: cddbd v1.5.2PL0 Copyright (c) Steve Scherf et al.
# Submitted via: EZCDAudioConverter 7.1.2.1
#
DISCID=9f07cd0c
DTITLE=Vern Gosdin - It's Not Over
DYEAR=1991
DGENRE=Country
TTITLE0=Your Bedroom Eyes
TTITLE1=When Love Was All We Had To Share
TTITLE2=Loving You Is Music To My Mind
TTITLE3=It's Not Over (If I'm Not Over You)
TTITLE4=Weekends Were Made For Cheatin'
TTITLE5=Rough Around The Edges
TTITLE6=Cowboys Are Common As Sin
TTITLE7=It's Beginning To Look Like The End
TTITLE8=Lady
TTITLE9=My Baby Sings The Blues
TTITLE10=Too Long Gone
TTITLE11=Love Is Like An Echo
EXTD=
EXTT0=
EXTT1=
EXTT2=
EXTT3=
EXTT4=
EXTT5=
EXTT6=
EXTT7=
EXTT8=
EXTT9=
EXTT10=
EXTT11=
PLAYORDER=
